<?xml version="1.0" encoding="iso-8859-1"?>
<!-- Generator: Adobe Illustrator 19.0.0, SVG Export Plug-In . SVG Version: 6.00 Build 0)  -->
<svg version="1.1" id="Layer_1" xmlns="http://www.w3.org/2000/svg" xmlns:xlink="http://www.w3.org/1999/xlink" x="512px" y="512px"
	 viewBox="0 0 512 512" style="enable-background:new 0 0 512 512;" xml:space="preserve">
<g>
	<g>
		<path d="M495.479,286.529L361.457,152.507l69.942-69.942c2.032-2.032,3.169-4.791,3.159-7.666
			c-0.01-2.874-1.167-5.625-3.213-7.642L366.273,3.105c-4.219-4.16-11.007-4.136-15.199,0.054L294.523,59.71l-56.55-56.55
			C235.951,1.137,233.207,0,230.347,0s-5.604,1.137-7.627,3.159L80.974,144.905l-64.453,64.453c-4.212,4.212-4.212,11.042,0,15.254
			L150.64,358.731l-69.941,69.941c-2.022,2.022-3.159,4.766-3.159,7.627s1.137,5.604,3.159,7.627l64.916,64.916
			c2.107,2.106,4.867,3.159,7.627,3.159c2.76,0,5.521-1.053,7.627-3.159l57.01-57.01l56.149,56.15
			c2.023,2.022,4.766,3.159,7.627,3.159s5.603-1.137,7.627-3.159l141.563-141.563l64.636-64.636
			C499.691,297.571,499.691,290.741,495.479,286.529z M302.152,82.591c0.001-0.001,0.001-0.001,0.002-0.002l56.602-56.603
			l49.709,49.007l-69.883,69.883c-0.002,0.002-0.003,0.003-0.005,0.005l-57.009,57.009l-49.357-49.357L302.152,82.591z
			 M344.186,295.016l-48.924,48.924l-57.289-57.289l-69.942-69.942l48.924-48.924l56.985,56.985L344.186,295.016z M230.347,26.039
			l48.923,48.924l-32.982,32.982l-36.959,36.959l-56.55,56.55l-48.924-48.924L230.347,26.039z M39.401,216.984l16.973-16.973
			l81.941,81.941c2.106,2.106,4.867,3.159,7.627,3.159c2.76,0,5.521-1.053,7.627-3.159c4.212-4.212,4.212-11.042,0-15.254
			l-81.941-81.941l16.973-16.973l56.55,56.55c0.002,0.002,0.003,0.003,0.005,0.005l69.937,69.937l-17.205,17.205l-31.994,31.996
			L39.401,216.984z M210.25,428.951c-0.001,0.001-0.002,0.002-0.002,0.003l-57.006,57.006l-49.662-49.662l93.783-93.782
			l32.985-32.985l45.581,45.581l4.08,4.08l-32.956,32.956L210.25,428.951z M281.653,485.102l-48.523-48.523l69.759-69.759
			l56.551-56.55l48.522,48.522L281.653,485.102z M423.216,343.539l-56.15-56.15l-70.246-70.246l16.456-16.456l82.802,82.802
			c2.107,2.107,4.867,3.159,7.627,3.159s5.52-1.053,7.627-3.159c4.212-4.212,4.212-11.041,0-15.254l-82.802-82.802l17.673-17.673
			l126.395,126.396L423.216,343.539z"/>
	</g>
</g>
<g>
	<g>
		<path d="M179.647,295.347c-0.14-0.69-0.345-1.37-0.615-2.017s-0.604-1.273-0.992-1.866c-0.388-0.582-0.841-1.143-1.337-1.639
			c-0.496-0.496-1.057-0.949-1.639-1.337c-0.593-0.388-1.219-0.723-1.866-0.992s-1.327-0.475-2.017-0.615
			c-1.391-0.28-2.826-0.28-4.217,0c-0.69,0.14-1.37,0.345-2.017,0.615c-0.647,0.27-1.273,0.604-1.866,0.992
			c-0.582,0.388-1.143,0.841-1.639,1.337c-0.496,0.496-0.949,1.057-1.337,1.639c-0.388,0.593-0.723,1.219-0.992,1.866
			s-0.475,1.327-0.615,2.017c-0.14,0.701-0.205,1.402-0.205,2.114c0,0.701,0.065,1.402,0.205,2.103
			c0.14,0.69,0.345,1.37,0.615,2.017s0.604,1.273,0.992,1.866c0.388,0.582,0.841,1.143,1.337,1.639
			c0.496,0.496,1.057,0.949,1.639,1.337c0.593,0.388,1.219,0.723,1.866,0.992s1.327,0.475,2.017,0.615
			c0.701,0.14,1.402,0.205,2.114,0.205c0.701,0,1.413-0.065,2.103-0.205c0.69-0.14,1.37-0.345,2.017-0.615s1.273-0.604,1.866-0.992
			c0.582-0.388,1.143-0.841,1.639-1.337c0.496-0.496,0.949-1.057,1.337-1.639c0.388-0.593,0.723-1.219,0.992-1.866
			s0.475-1.327,0.615-2.017c0.14-0.701,0.205-1.402,0.205-2.103C179.852,296.749,179.787,296.048,179.647,295.347z"/>
	</g>
</g>
<g>
	<g>
		<path d="M437.407,296.889c-0.14-0.69-0.344-1.37-0.614-2.028c-0.27-0.647-0.605-1.273-0.992-1.855
			c-0.388-0.593-0.841-1.143-1.337-1.639c-0.496-0.496-1.046-0.949-1.641-1.348c-0.582-0.388-1.208-0.723-1.865-0.992
			c-0.648-0.27-1.327-0.475-2.017-0.615c-1.391-0.28-2.826-0.28-4.206,0c-0.69,0.14-1.37,0.345-2.028,0.615
			c-0.647,0.27-1.273,0.604-1.855,0.992c-0.593,0.399-1.143,0.852-1.641,1.348c-0.496,0.496-0.949,1.046-1.348,1.639
			c-0.387,0.582-0.723,1.208-0.992,1.855c-0.27,0.658-0.474,1.337-0.614,2.028s-0.205,1.402-0.205,2.103s0.066,1.413,0.205,2.103
			s0.343,1.37,0.613,2.017c0.27,0.658,0.605,1.284,0.992,1.866c0.399,0.593,0.852,1.143,1.348,1.639
			c0.497,0.496,1.047,0.949,1.641,1.337c0.582,0.388,1.208,0.723,1.855,0.992c0.658,0.27,1.337,0.475,2.028,0.615
			c0.691,0.14,1.403,0.216,2.103,0.216c0.701,0,1.414-0.076,2.103-0.216c0.69-0.14,1.37-0.345,2.017-0.615
			c0.657-0.27,1.282-0.604,1.865-0.992c0.594-0.388,1.144-0.841,1.641-1.337c2.005-2.006,3.16-4.789,3.16-7.626
			C437.623,298.291,437.548,297.579,437.407,296.889z"/>
	</g>
</g>
<g>
</g>
<g>
</g>
<g>
</g>
<g>
</g>
<g>
</g>
<g>
</g>
<g>
</g>
<g>
</g>
<g>
</g>
<g>
</g>
<g>
</g>
<g>
</g>
<g>
</g>
<g>
</g>
<g>
</g>
</svg>
